<?xml version="1.0" standalone="no"?>
<!DOCTYPE svg PUBLIC "-//W3C//DTD SVG 20010904//EN"
 "http://www.w3.org/TR/2001/REC-SVG-20010904/DTD/svg10.dtd">
<svg version="1.0" xmlns="http://www.w3.org/2000/svg"
 width="852.000000pt" height="290.000000pt" viewBox="0 0 852.000000 290.000000"
 preserveAspectRatio="xMidYMid meet">

<g transform="translate(0.000000,290.000000) scale(0.100000,-0.100000)"
fill="#000000" stroke="none">
<path d="M810 2554 c-271 -80 -455 -316 -463 -596 l-2 -73 170 -3 c208 -3 215
-2 215 41 1 136 100 281 212 307 70 17 183 8 236 -19 123 -63 168 -261 103
-448 -82 -236 -242 -408 -883 -946 l-58 -49 0 -149 0 -149 710 0 710 0 0 165
0 165 -415 0 c-232 0 -415 4 -415 9 0 5 71 72 158 149 394 350 556 573 611
840 16 75 13 256 -4 329 -39 165 -156 314 -299 383 -114 54 -198 70 -363 69
-117 0 -151 -4 -223 -25z"/>
<path d="M1970 2355 l0 -184 138 -3 137 -3 3 -862 2 -863 205 0 205 0 0 1050
0 1050 -345 0 -345 0 0 -185z"/>
<path d="M3850 1446 l0 -1006 203 2 202 3 5 389 5 389 90 -2 c50 -1 93 -5 97
-9 4 -4 103 -178 221 -387 l215 -380 231 -3 c127 -1 231 0 231 2 0 3 -104 182
-231 398 -127 216 -234 398 -236 404 -2 7 13 17 34 24 198 65 347 220 397 416
34 131 11 320 -51 437 -39 73 -164 195 -240 235 -35 18 -107 45 -160 60 -98
26 -98 26 -555 30 l-458 3 0 -1005z m806 663 c97 -13 155 -40 200 -92 99 -116
78 -341 -39 -427 -71 -52 -117 -60 -349 -60 l-208 0 0 288 c0 159 3 292 7 295
10 11 305 8 389 -4z"/>
<path d="M6450 1445 l0 -1005 580 0 580 0 0 165 0 165 -380 0 -380 0 0 265 0
265 338 2 337 3 3 158 3 157 -341 0 -340 0 0 250 0 250 378 2 377 3 3 163 2
162 -580 0 -580 0 0 -1005z"/>
<path d="M3188 876 c-55 -22 -84 -43 -112 -86 -90 -136 -27 -310 128 -355 106
-31 201 -4 269 76 92 107 57 287 -67 351 -52 27 -165 34 -218 14z"/>
<path d="M5786 876 c-54 -20 -85 -45 -121 -95 -27 -39 -30 -50 -30 -125 0 -73
3 -87 28 -124 96 -146 336 -145 427 2 26 44 37 134 21 191 -14 52 -63 110
-114 137 -54 27 -157 34 -211 14z"/>
<path d="M8080 881 c-142 -44 -209 -193 -146 -327 68 -146 285 -178 402 -60
89 89 86 246 -7 332 -61 55 -168 79 -249 55z"/>
</g>
</svg>
