<?xml version="1.0" standalone="no"?>
<!DOCTYPE svg PUBLIC "-//W3C//DTD SVG 20010904//EN"
 "http://www.w3.org/TR/2001/REC-SVG-20010904/DTD/svg10.dtd">
<svg version="1.0" xmlns="http://www.w3.org/2000/svg"
 width="512.000000pt" height="512.000000pt" viewBox="0 0 512.000000 512.000000"
 preserveAspectRatio="xMidYMid meet">

<g transform="translate(0.000000,512.000000) scale(0.100000,-0.100000)"
fill="#000000" stroke="none">
<path d="M2120 5074 c-200 -36 -341 -79 -464 -141 l-68 -34 -202 -2 c-223 -2
-236 -5 -294 -71 -31 -36 -52 -90 -52 -136 0 -22 -7 -28 -45 -39 -25 -7 -76
-28 -113 -46 l-68 -32 -34 29 c-58 48 -139 61 -208 33 -46 -20 -276 -245 -304
-299 -31 -61 -23 -152 20 -205 18 -22 32 -43 32 -47 0 -4 -13 -34 -29 -68 -15
-34 -36 -84 -45 -112 l-17 -52 -55 -4 c-66 -6 -118 -42 -152 -109 -22 -42 -23
-52 -20 -240 3 -193 3 -196 30 -236 34 -52 88 -85 149 -91 45 -4 49 -7 60 -41
6 -20 27 -70 46 -112 l35 -76 -33 -46 c-38 -54 -49 -131 -29 -193 16 -46 234
-275 290 -304 80 -41 162 -34 224 20 l33 29 104 -44 c57 -25 110 -45 117 -45
7 0 12 -12 12 -29 0 -70 48 -149 110 -181 29 -15 59 -20 117 -20 88 0 75 10
145 -113 49 -86 101 -216 123 -305 l17 -70 -36 -37 c-108 -108 -125 -274 -41
-401 33 -50 33 -53 15 -69 -38 -35 -64 -115 -65 -200 0 -68 4 -89 28 -137 32
-65 98 -128 161 -154 l43 -18 5 -141 c5 -110 10 -152 27 -195 30 -77 82 -144
145 -186 95 -63 119 -67 443 -72 420 -6 506 10 612 116 91 91 121 181 121 365
l0 112 55 24 c70 30 136 102 165 179 38 99 19 215 -51 312 -9 12 -5 26 19 64
81 127 64 289 -40 399 l-39 41 12 51 c41 173 130 345 306 590 160 224 237 338
278 417 l30 58 101 0 101 0 43 -187 c24 -104 48 -196 54 -205 24 -39 67 -48
228 -48 l154 0 14 -37 c7 -21 41 -66 75 -100 53 -53 71 -64 134 -83 58 -18 86
-21 135 -16 117 12 224 88 275 196 22 46 26 69 26 145 0 78 -4 97 -28 147 -57
116 -174 188 -307 188 -132 0 -237 -63 -299 -180 l-33 -61 -106 3 -106 3 -42
183 c-23 100 -50 194 -59 208 -23 36 -54 44 -171 44 -96 0 -105 2 -100 18 23
74 48 194 58 285 l12 107 273 0 273 0 21 -42 c47 -94 124 -156 223 -183 118
-32 250 7 334 99 64 70 85 124 86 226 1 77 -2 92 -32 152 -61 124 -169 190
-310 190 -55 -1 -85 -6 -126 -25 -73 -33 -140 -97 -172 -163 l-26 -54 -273 0
-272 0 -7 80 c-7 77 -47 287 -61 323 -7 16 2 17 109 17 112 0 117 1 146 28 27
24 34 45 73 214 l42 188 110 0 111 0 13 -35 c7 -19 34 -59 61 -88 137 -150
363 -150 500 0 121 133 121 323 0 456 -129 141 -340 149 -482 18 -25 -22 -57
-65 -71 -96 l-28 -55 -165 0 -166 0 -27 -27 c-21 -21 -33 -50 -48 -118 -11
-49 -31 -134 -43 -187 l-22 -98 -97 0 -96 0 -47 88 c-87 165 -228 337 -283
348 -37 7 -89 -15 -105 -45 -24 -45 -12 -87 43 -153 28 -34 78 -101 109 -148
l57 -85 -179 -5 c-171 -5 -180 -6 -204 -29 -14 -13 -28 -36 -31 -52 -8 -37 18
-93 51 -108 16 -7 100 -11 239 -11 l213 0 16 -47 c24 -71 54 -218 62 -300 l7
-73 -327 0 c-362 0 -365 0 -386 -65 -9 -26 -8 -41 4 -70 26 -62 44 -65 397
-65 l311 0 -7 -67 c-9 -89 -30 -192 -57 -275 l-22 -68 -218 0 -218 0 -32 -29
c-27 -24 -33 -36 -33 -71 0 -35 6 -47 33 -71 l32 -29 165 0 c91 0 165 -3 165
-7 0 -14 -96 -159 -192 -290 -225 -306 -321 -484 -374 -691 l-18 -72 -592 0
-591 0 -13 58 c-18 82 -56 184 -105 283 l-43 86 51 34 c57 38 87 87 95 155 2
24 10 44 16 44 6 0 56 20 112 43 l100 43 47 -32 c62 -43 122 -52 185 -29 59
23 281 237 313 303 32 64 24 147 -20 208 l-33 47 35 76 c19 42 40 92 46 112
11 34 15 37 61 41 61 6 119 42 151 95 23 36 24 48 27 227 3 157 1 196 -13 232
-24 62 -83 110 -156 126 l-60 13 -35 85 c-20 47 -40 97 -46 111 -10 23 -7 31
22 68 29 36 35 52 38 105 3 49 0 71 -16 102 -28 54 -258 279 -304 299 -72 29
-174 9 -223 -45 -17 -19 -18 -19 -68 7 -28 14 -79 36 -112 48 -56 21 -60 25
-66 60 l-6 38 73 33 c40 19 126 48 191 65 106 29 136 32 303 36 142 4 207 1
277 -11 103 -18 128 -13 162 30 51 65 14 136 -84 161 -59 15 -465 28 -525 17z
m-590 -456 c6 -96 19 -111 120 -138 41 -11 125 -45 186 -75 143 -71 164 -72
236 -6 l55 50 98 -99 99 -99 -52 -55 c-44 -46 -52 -61 -52 -93 0 -21 7 -48 15
-60 33 -48 80 -152 110 -248 40 -123 55 -138 155 -143 l70 -4 0 -139 0 -139
-70 0 c-95 0 -119 -22 -155 -145 -15 -49 -49 -132 -76 -184 -64 -122 -64 -143
0 -213 l50 -55 -99 -98 -99 -99 -50 47 c-74 69 -84 69 -215 4 -61 -30 -150
-67 -198 -82 -112 -34 -128 -51 -128 -146 l0 -69 -145 0 -145 0 0 69 c0 95
-16 112 -128 146 -48 14 -137 51 -198 82 -130 65 -141 65 -215 -4 l-50 -47
-99 99 -100 99 39 41 c76 79 78 100 12 226 -27 52 -62 135 -76 184 -38 123
-54 139 -150 143 l-75 4 0 139 0 139 55 0 c110 0 130 19 176 169 12 40 44 116
71 167 62 122 62 140 -4 210 l-52 55 99 99 98 99 55 -50 c72 -66 98 -66 223 0
52 28 135 61 184 75 118 34 135 52 135 145 0 37 3 71 7 75 4 3 68 5 142 4
l136 -3 5 -77z m3297 22 c107 -65 72 -228 -54 -255 -41 -8 -115 23 -138 59
-42 63 -23 159 39 197 41 25 112 25 153 -1z m25 -1047 c34 -20 68 -79 68 -118
0 -101 -113 -173 -200 -128 -98 51 -108 188 -17 243 40 25 109 26 149 3z m-24
-1053 c61 -37 80 -130 39 -191 -75 -112 -236 -75 -254 59 -15 114 115 193 215
132z m-1812 -1082 c38 -43 45 -88 19 -138 -32 -62 -13 -60 -700 -60 -698 0
-667 -3 -701 68 -28 60 1 137 61 163 11 4 305 7 653 6 l634 -2 34 -37z m-43
-412 c18 -7 40 -23 50 -34 27 -29 33 -92 13 -130 -34 -65 4 -62 -694 -62 -695
0 -675 -2 -707 60 -31 61 -4 138 58 165 47 21 1232 22 1280 1z m-165 -553 c-4
-137 -22 -181 -91 -226 l-41 -27 -332 0 c-211 0 -343 4 -361 11 -15 5 -41 22
-56 37 -51 48 -60 78 -65 205 l-4 117 477 0 477 0 -4 -117z"/>
<path d="M1105 4041 c-11 -5 -28 -17 -38 -28 -9 -11 -87 -199 -173 -417 -122
-313 -154 -404 -149 -426 9 -41 58 -80 100 -80 48 0 80 33 113 115 l29 70 152
0 153 0 28 -69 c35 -90 69 -120 124 -113 53 7 86 44 86 95 0 24 -55 177 -153
426 -158 405 -165 418 -227 430 -14 3 -34 1 -45 -3z m74 -474 c17 -43 31 -80
31 -82 0 -3 -32 -5 -71 -5 -53 0 -70 3 -67 13 31 89 64 165 69 159 4 -4 21
-42 38 -85z"/>
<path d="M1742 4035 c-60 -26 -62 -40 -62 -465 0 -303 3 -387 14 -414 37 -88
145 -88 182 0 11 27 14 110 14 406 0 228 -4 388 -11 411 -16 60 -78 88 -137
62z"/>
<path d="M3015 4888 c-74 -40 -73 -139 2 -177 65 -33 143 18 143 95 0 37 -59
94 -96 94 -16 0 -38 -6 -49 -12z"/>
</g>
</svg>
