<?xml version="1.0" standalone="no"?>
<!DOCTYPE svg PUBLIC "-//W3C//DTD SVG 20010904//EN"
 "http://www.w3.org/TR/2001/REC-SVG-20010904/DTD/svg10.dtd">
<svg version="1.0" xmlns="http://www.w3.org/2000/svg"
 width="256.000000pt" height="256.000000pt" viewBox="0 0 256.000000 256.000000"
 preserveAspectRatio="xMidYMid meet">

<g transform="translate(0.000000,256.000000) scale(0.100000,-0.100000)"
fill="#000000" stroke="none">
<path d="M125 2216 c-59 -27 -77 -46 -104 -106 -20 -44 -21 -63 -21 -610 0
-364 4 -578 11 -603 13 -49 63 -105 114 -128 37 -17 82 -19 662 -19 l621 0 18
-48 c33 -85 67 -136 138 -208 155 -155 379 -210 587 -145 121 38 168 91 120
135 -20 18 -23 18 -103 -14 -274 -110 -563 23 -653 298 -24 76 -22 209 4 286
29 81 60 132 118 189 93 94 199 138 335 139 271 1 478 -210 478 -488 0 -79 -1
-84 -31 -113 -42 -42 -95 -43 -141 -2 l-33 29 -3 139 c-4 156 -13 179 -65 169
-20 -4 -42 2 -73 20 -61 36 -156 44 -221 19 -187 -72 -233 -319 -83 -448 99
-84 217 -89 329 -12 48 33 51 34 63 16 22 -31 82 -61 135 -68 38 -4 61 0 98
16 65 29 83 46 111 106 44 93 29 255 -36 390 -82 171 -250 300 -427 330 l-42
7 -3 291 c-3 319 -6 332 -64 391 -16 16 -47 37 -69 47 -38 18 -87 19 -880 19
l-840 0 -50 -24z m1670 -104 c-217 -183 -733 -600 -752 -608 -15 -6 -37 -9
-49 -5 -20 5 -774 616 -774 627 0 2 359 4 798 4 754 -1 796 -2 777 -18z
m-1284 -368 c211 -173 401 -324 421 -335 45 -23 118 -25 160 -3 17 9 206 160
420 336 214 175 393 316 398 313 6 -4 10 -115 10 -284 l0 -277 -72 -17 c-268
-62 -458 -296 -458 -562 l0 -65 -582 0 c-369 0 -597 4 -620 10 -20 6 -46 22
-58 37 -20 25 -20 37 -20 594 0 313 4 569 8 569 5 0 181 -142 393 -316z m1543
-702 c94 -54 101 -201 14 -264 -62 -44 -165 -33 -212 23 -56 66 -53 157 7 217
53 53 124 62 191 24z"/>
</g>
</svg>
