<?xml version="1.0" standalone="no"?>
<!DOCTYPE svg PUBLIC "-//W3C//DTD SVG 20010904//EN"
 "http://www.w3.org/TR/2001/REC-SVG-20010904/DTD/svg10.dtd">
<svg version="1.0" xmlns="http://www.w3.org/2000/svg"
 width="256.000000pt" height="256.000000pt" viewBox="0 0 256.000000 256.000000"
 preserveAspectRatio="xMidYMid meet">

<g transform="translate(0.000000,256.000000) scale(0.100000,-0.100000)"
fill="#000000" stroke="none">
<path d="M207 2520 c-58 -15 -89 -34 -135 -83 -47 -53 -77 -137 -70 -201 3
-23 87 -247 187 -498 l181 -458 -182 -457 c-111 -281 -183 -476 -186 -504 -6
-66 22 -143 71 -196 72 -78 157 -105 254 -79 32 8 519 238 1083 511 1079 522
1076 521 1122 609 49 95 26 225 -53 303 -40 40 -131 85 -1724 854 -431 208
-463 220 -548 199z m1093 -660 c547 -265 997 -484 999 -486 3 -2 -395 -3 -884
-2 l-889 3 -173 430 c-94 237 -172 441 -173 455 0 51 50 94 100 85 14 -2 473
-221 1020 -485z m999 -674 c-2 -2 -452 -221 -999 -486 -760 -369 -1004 -483
-1034 -484 -30 0 -43 5 -62 27 -13 16 -24 39 -24 53 0 18 326 854 347 887 2 4
403 7 890 7 488 0 884 -2 882 -4z"/>
</g>
</svg>
